<!--?xml version="1.0" standalone="no"?-->
              <svg id="sw-js-blob-svg" viewBox="0 0 100 100" xmlns="http://www.w3.org/2000/svg" version="1.1">
                    <defs> 
                        <linearGradient id="sw-gradient" x1="0" x2="1" y1="1" y2="0">
                            <stop id="stop1" stop-color="rgba(212.808, 201.34, 195.913, 1)" offset="0%"></stop>
                            <stop id="stop2" stop-color="rgba(192.46, 191.204, 189.132, 1)" offset="100%"></stop>
                        </linearGradient>
                    </defs>
                <path fill="url(#sw-gradient)" d="M26.2,-29.2C33.7,-25,39.2,-16.5,39.1,-8.2C39,0,33.3,7.9,28.3,16.1C23.3,24.2,19.1,32.5,12,36.7C4.9,41,-5,41.1,-12.6,37.2C-20.2,33.4,-25.4,25.5,-28.9,17.6C-32.4,9.7,-34.1,1.7,-33.2,-6.3C-32.3,-14.3,-28.8,-22.2,-22.8,-26.7C-16.8,-31.2,-8.4,-32.2,0.5,-32.8C9.4,-33.4,18.8,-33.5,26.2,-29.2Z" width="100%" height="100%" transform="translate(50 50)" stroke-width="0" style="transition: all 0.3s ease 0s;"></path>
              </svg>